HIERARCHY
ROOT Hips
{
	OFFSET 0.00000 0.00000 0.00000
	CHANNELS 6 Xposition Yposition Zposition Zrotation Yrotation Xrotation 
	JOINT LHipJoint
	{
		OFFSET 0 0 0
		CHANNELS 3 Zrotation Yrotation Xrotation
		JOINT LeftUpLeg
		{
			OFFSET 1.17584 -1.63585 1.00361
			CHANNELS 3 Zrotation Yrotation Xrotation
			JOINT LeftLeg
			{
				OFFSET 2.23889 -6.15131 0.00000
				CHANNELS 3 Zrotation Yrotation Xrotation
				JOINT LeftFoot
				{
					OFFSET 2.65161 -7.28525 0.00000
					CHANNELS 3 Zrotation Yrotation Xrotation
					JOINT LeftToeBase
					{
						OFFSET 0.24898 -0.68407 1.57235
						CHANNELS 3 Zrotation Yrotation Xrotation
						End Site
						{
							OFFSET 0.00000 -0.00000 0.85838
						}
					}
				}
			}
		}
	}
	JOINT RHipJoint
	{
		OFFSET 0 0 0
		CHANNELS 3 Zrotation Yrotation Xrotation
		JOINT RightUpLeg
		{
			OFFSET -1.15592 -1.63585 1.00361
			CHANNELS 3 Zrotation Yrotation Xrotation
			JOINT RightLeg
			{
				OFFSET -2.34071 -6.43104 0.00000
				CHANNELS 3 Zrotation Yrotation Xrotation
				JOINT RightFoot
				{
					OFFSET -2.59113 -7.11908 0.00000
					CHANNELS 3 Zrotation Yrotation Xrotation
					JOINT RightToeBase
					{
						OFFSET -0.17867 -0.49089 1.70981
						CHANNELS 3 Zrotation Yrotation Xrotation
						End Site
						{
							OFFSET -0.00000 -0.00000 0.89861
						}
					}
				}
			}
		}
	}
	JOINT LowerBack
	{
		OFFSET 0 0 0
		CHANNELS 3 Zrotation Yrotation Xrotation
		JOINT Spine
		{
			OFFSET -0.02255 1.90764 -0.16605
			CHANNELS 3 Zrotation Yrotation Xrotation
			JOINT Spine1
			{
				OFFSET -0.00365 1.92150 -0.04898
				CHANNELS 3 Zrotation Yrotation Xrotation
				JOINT Neck
				{
					OFFSET 0 0 0
					CHANNELS 3 Zrotation Yrotation Xrotation
					JOINT Neck1
					{
						OFFSET 0.00372 1.59170 0.08694
						CHANNELS 3 Zrotation Yrotation Xrotation
						JOINT Head
						{
							OFFSET 0.12558 1.58643 -0.08078
							CHANNELS 3 Zrotation Yrotation Xrotation
							End Site
							{
								OFFSET 0.04211 1.60835 -0.03803
							}
						}
					}
				}
				JOINT LeftShoulder
				{
					OFFSET 0 0 0
					CHANNELS 3 Zrotation Yrotation Xrotation
					JOINT LeftArm
					{
						OFFSET 3.69324 0.96316 0.19077
						CHANNELS 3 Zrotation Yrotation Xrotation
						JOINT LeftForeArm
						{
							OFFSET 4.87796 -0.00000 -0.00000
							CHANNELS 3 Zrotation Yrotation Xrotation
							JOINT LeftHand
							{
								OFFSET 3.23169 -0.00000 0.00000
								CHANNELS 3 Zrotation Yrotation Xrotation
								JOINT LeftFingerBase
								{
									OFFSET 0 0 0
									CHANNELS 3 Zrotation Yrotation Xrotation
									JOINT LeftHandIndex1
									{
										OFFSET 0.73132 -0.00000 0.00000
										CHANNELS 3 Zrotation Yrotation Xrotation
										End Site
										{
											OFFSET 0.58961 -0.00000 0.00000
										}
									}
								}
								JOINT LThumb
								{
									OFFSET 0 0 0
									CHANNELS 3 Zrotation Yrotation Xrotation
									End Site
									{
										OFFSET 0.59861 -0.00000 0.59861
									}
								}
							}
						}
					}
				}
				JOINT RightShoulder
				{
					OFFSET 0 0 0
					CHANNELS 3 Zrotation Yrotation Xrotation
					JOINT RightArm
					{
						OFFSET -3.66103 0.75145 0.08281
						CHANNELS 3 Zrotation Yrotation Xrotation
						JOINT RightForeArm
						{
							OFFSET -4.91430 -0.00000 0.00000
							CHANNELS 3 Zrotation Yrotation Xrotation
							JOINT RightHand
							{
								OFFSET -3.29093 -0.00000 0.00000
								CHANNELS 3 Zrotation Yrotation Xrotation
								JOINT RightFingerBase
								{
									OFFSET 0 0 0
									CHANNELS 3 Zrotation Yrotation Xrotation
									JOINT RightHandIndex1
									{
										OFFSET -0.54512 -0.00000 0.00000
										CHANNELS 3 Zrotation Yrotation Xrotation
										End Site
										{
											OFFSET -0.43949 -0.00000 0.00000
										}
									}
								}
								JOINT RThumb
								{
									OFFSET 0 0 0
									CHANNELS 3 Zrotation Yrotation Xrotation
									End Site
									{
										OFFSET -0.44620 -0.00000 0.44620
									}
								}
							}
						}
					}
				}
			}
		}
	}
}
MOTION
Frames: 9
Frame Time: .0083333
16.5659 15.6704 -1.0955 181.6950 -34.7243 -162.6500 0.0000 0.0000 0.0000 -31.5165 13.1366 -18.9965 6.8249 15.1827 48.2091 0.4962 -13.9760 -14.9088 3.7203 -11.7786 -34.9532 0.0000 0.0000 0.0000 0.6698 25.0619 -58.5157 -7.4992 -15.7382 50.7380 0.0969 12.1561 -7.1233 -1.2291 7.0311 -19.8075 -0.8846 -4.8596 8.3568 1.5247 -6.9712 6.2101 2.4853 -3.7318 2.0820 1.5586 9.7078 -1.9616 -9.6958 11.7188 -12.9252 -3.6597 5.8634 -3.1435 -0.0000 -0.0000 0.0000 -72.5020 -31.4570 51.0923 104.3334 -59.2093 -72.3801 -0.0000 -0.0000 8.7484 27.6167 -38.5727 -18.0660 -7.1250 0.0000 -0.0000 -3.7083 -11.9316 4.4031 -0.0000 -0.0000 0.0000 79.6823 22.9102 51.6441 -117.4875 56.9431 -83.5606 0.0000 -0.0000 -0.3178 -43.9146 -27.9777 24.3079 7.1250 -0.0000 -0.0000 -18.6492 -65.4742 9.3723
16.5686 15.6081 -1.0447 182.0700 -33.0443 -162.3670 0.0000 0.0000 0.0000 -33.4386 15.1238 -18.4072 5.6197 14.0494 43.4355 0.5749 -13.9448 -15.5956 3.4096 -11.3303 -33.4020 0.0000 0.0000 0.0000 0.7207 26.0176 -60.2811 -7.8503 -16.0080 52.0216 0.1119 11.3522 -6.1901 -0.9350 6.1595 -17.2479 -0.7662 -5.0742 8.1435 1.8495 -7.2737 6.2569 2.7424 -3.8954 2.2941 1.9600 9.9729 -2.1194 -10.1221 12.0489 -12.8114 -3.8478 6.0114 -3.0013 0.0000 -0.0000 0.0000 -68.7311 -33.5019 48.4616 101.2484 -59.5165 -69.7256 -0.0000 -0.0000 7.7170 29.4904 -38.8625 -19.5376 -7.1250 0.0000 -0.0000 -2.8180 -12.7670 3.3747 0.0000 -0.0000 0.0000 79.8369 26.0629 50.9780 -114.3615 57.6342 -80.9301 0.0000 0.0000 0.4556 -43.6239 -27.5175 23.7660 7.1250 -0.0000 -0.0000 -18.1220 -64.8514 8.8387
16.5771 15.5288 -0.9930 182.4830 -31.4785 -162.0410 0.0000 0.0000 0.0000 -35.2848 16.8475 -17.6977 4.4772 12.7697 38.5124 0.7230 -13.3603 -16.6515 3.3196 -11.1953 -32.9412 0.0000 0.0000 0.0000 0.7063 26.9883 -62.1393 -8.2088 -16.2707 53.3112 0.1152 10.3791 -5.2395 -0.6025 4.9686 -13.8191 -0.7269 -5.3137 7.8906 2.2975 -7.6205 6.2821 3.1648 -4.0882 2.5394 2.0778 10.2797 -2.1994 -10.4344 12.4397 -12.7358 -3.9568 6.2008 -2.9059 -0.0000 0.0000 0.0000 -64.6521 -35.2402 45.5466 97.8411 -59.7664 -66.7853 -0.0000 -0.0000 6.6643 31.1327 -39.0447 -20.8312 -7.1250 0.0000 -0.0000 -2.0290 -13.4538 2.4467 -0.0000 0.0000 0.0000 79.9465 29.1209 50.5334 -111.0420 58.2591 -78.1164 0.0000 0.0000 1.0063 -43.2968 -26.9820 23.1471 7.1250 -0.0000 -0.0000 -17.5474 -64.1292 8.2559
16.5873 15.4502 -0.9411 182.8580 -30.0610 -161.7120 0.0000 0.0000 0.0000 -36.9783 18.2028 -16.8208 3.4504 11.3907 33.6091 0.8425 -12.7848 -17.4655 3.0377 -10.7559 -31.4610 0.0000 0.0000 0.0000 0.5840 27.9486 -63.8507 -8.5309 -16.4962 54.4531 0.1083 9.2697 -4.3049 -0.2546 3.2467 -8.9664 -0.8292 -5.5780 7.6738 2.8338 -8.0200 6.3118 3.7571 -4.3195 2.8129 1.9298 10.5957 -2.2273 -10.6101 12.8449 -12.7225 -3.9826 6.4057 -2.8662 -0.0000 0.0000 0.0000 -60.2425 -36.6367 42.4026 94.1683 -59.9342 -63.6090 -0.0000 -0.0000 5.6336 32.4651 -39.1504 -21.8843 -7.1250 0.0000 -0.0000 -1.3833 -13.9869 1.6770 -0.0000 0.0000 0.0000 80.0528 32.0592 50.3035 -107.6267 58.7928 -75.2033 0.0000 0.0000 1.3210 -42.9398 -26.5108 22.5564 7.1250 -0.0000 -0.0000 -16.9565 -63.4721 7.7098
16.5987 15.3757 -0.8895 183.1410 -28.8345 -161.4300 0.0000 0.0000 0.0000 -38.4899 19.2434 -15.6658 2.5762 9.9751 28.8963 0.9343 -12.3790 -18.1026 2.6045 -10.0255 -29.0595 0.0000 0.0000 0.0000 0.3299 28.8642 -65.2777 -8.7881 -16.6694 55.3545 0.0951 8.0929 -3.4145 -0.0183 0.8733 -2.4004 -1.0506 -5.8570 7.5440 3.3768 -8.4587 6.3744 4.4272 -4.5822 3.1065 1.6477 10.8920 -2.2562 -10.6481 13.2299 -12.7379 -3.9424 6.6018 -2.8568 0.0000 -0.0000 0.0000 -55.4747 -37.6932 39.1671 90.2642 -59.9997 -60.2288 -0.0000 -0.0000 4.6799 33.4622 -39.2168 -22.6792 -7.1250 0.0000 -0.0000 -0.8993 -14.3843 1.0946 0.0000 -0.0000 0.0000 80.2466 34.8275 50.2143 -104.2221 59.2218 -72.2845 0.0000 0.0000 1.4487 -42.5697 -26.2150 22.0859 7.1250 -0.0000 -0.0000 -16.3836 -63.0163 7.2670
16.6073 15.3156 -0.8394 183.3100 -27.8051 -161.2280 0.0000 0.0000 0.0000 -39.7709 19.9589 -14.2519 1.8765 8.6040 24.5641 0.9686 -12.5069 -18.4101 1.8495 -8.5453 -24.3830 0.0000 0.0000 0.0000 -0.0488 29.7090 -66.3024 -8.9573 -16.7802 55.9425 0.0788 6.9684 -2.6597 -0.0895 -1.9297 5.3115 -1.3378 -6.1315 7.5129 3.8447 -8.9032 6.4765 5.0630 -4.8547 3.3998 1.4182 11.1311 -2.2946 -10.5640 13.5503 -12.7496 -3.8705 6.7598 -2.8549 0.0000 -0.0000 0.0000 -50.3596 -38.4268 36.0298 86.1185 -59.9430 -56.6391 -0.0000 -0.0000 3.8483 34.2177 -39.2744 -23.2917 -7.1250 0.0000 -0.0000 -0.5362 -14.6993 0.6547 0.0000 -0.0000 0.0000 80.6169 37.3573 50.1823 -100.9121 59.5452 -69.4358 0.0000 0.0000 1.4726 -42.1139 -26.1399 21.7161 7.1250 -0.0000 -0.0000 -15.7192 -62.7938 6.8824
16.6102 15.2741 -0.7921 183.3730 -26.9475 -161.1030 0.0000 0.0000 0.0000 -40.8252 20.3603 -12.6411 1.3351 7.3166 20.6567 0.9814 -12.8808 -18.6090 1.0458 -6.5032 -18.2518 0.0000 0.0000 0.0000 -0.5451 30.4792 -66.9313 -9.0422 -16.8348 56.2359 0.0645 6.0668 -2.1246 -0.4923 -4.4987 12.4840 -1.5990 -6.3722 7.5313 4.1475 -9.3001 6.6232 5.5144 -5.1002 3.6871 1.4553 11.2827 -2.3386 -10.3949 13.7697 -12.7343 -3.8125 6.8542 -2.8370 0.0000 -0.0000 0.0000 -44.9341 -38.9016 33.2131 81.7191 -59.7393 -52.8348 -0.0000 -0.0000 3.1886 34.8912 -39.3537 -23.8557 -7.1250 0.0000 -0.0000 -0.2217 -15.0135 0.2716 0.0000 -0.0000 0.0000 81.2594 39.5893 50.1071 -97.7419 59.7723 -66.6996 0.0000 0.0000 1.5059 -41.5313 -26.2878 21.4181 7.1250 -0.0000 -0.0000 -14.8960 -62.7948 6.5136
16.6097 15.2390 -0.7486 183.3760 -26.2306 -161.0380 0.0000 0.0000 0.0000 -41.6834 20.5204 -10.8423 0.9188 6.1071 17.0954 1.0417 -13.0365 -19.1177 0.5089 -4.5726 -12.6934 0.0000 0.0000 0.0000 -1.1361 31.1850 -67.3280 -9.0745 -16.8554 56.3472 0.0567 5.5413 -1.8072 -0.9144 -6.0929 17.0541 -1.7690 -6.5468 7.5640 4.2704 -9.5917 6.7835 5.7283 -5.2801 3.9271 1.8671 11.3276 -2.3229 -10.1819 13.8601 -12.7005 -3.8048 6.8703 -2.8077 -0.0000 0.0000 0.0000 -39.3951 -39.1956 30.9543 77.1119 -59.3630 -48.8625 -0.0000 -0.0000 2.7475 35.5511 -39.4890 -24.4400 -7.1250 0.0000 -0.0000 0.0682 -15.3848 -0.0838 -0.0000 0.0000 0.0000 82.1212 41.4522 49.8700 -94.7389 59.9150 -64.1028 0.0000 0.0000 1.6386 -40.8124 -26.6244 21.1561 7.1250 -0.0000 -0.0000 -13.8848 -62.9746 6.1208
16.6066 15.2021 -0.7099 183.3760 -25.6239 -161.0070 0.0000 0.0000 0.0000 -42.3914 20.5851 -8.8211 0.5751 4.8565 13.4996 1.1457 -12.8462 -19.8585 0.2167 -2.9967 -8.2696 0.0000 0.0000 0.0000 -1.7771 31.8287 -67.6530 -9.0950 -16.8685 56.4181 0.0567 5.4764 -1.7233 -0.9709 -6.2731 17.5790 -1.8489 -6.6790 7.5851 4.3026 -9.8080 6.9148 5.7983 -5.4096 4.1032 2.4618 10.4866 -2.1889 -9.7839 13.9688 -12.8005 -3.8203 7.5483 -2.8559 0.0000 0.0000 0.0000 -34.0695 -39.2832 29.2955 72.4536 -58.8041 -44.8654 -0.0000 -0.0000 2.5759 36.1520 -39.6955 -25.0157 -7.1250 0.0000 -0.0000 0.3056 -15.8113 -0.3773 0.0000 0.0000 0.0000 83.0320 42.9605 49.5541 -91.9149 59.9861 -61.6582 0.0000 0.0000 1.8768 -39.9963 -27.1064 20.9209 7.1250 -0.0000 -0.0000 -12.7245 -63.2917 5.6949
